<svg width="457" height="482" viewBox="0 0 457 482" fill="none" xmlns="http://www.w3.org/2000/svg">
<rect width="457" height="482" rx="60" fill="black"/>
<path d="M145.19 354.274L143.394 344.423L142.046 346.299L143.843 356.15L145.19 354.274Z" fill="white"/>
<path d="M135.534 366.939L133.738 357.088L132.39 358.964L134.187 368.815L135.534 366.939Z" fill="white"/>
<path d="M125.878 379.604L124.081 369.753L122.734 371.629L124.53 381.48L125.878 379.604Z" fill="white"/>
<path d="M116.553 391.799L114.757 381.949L113.409 383.825L115.206 393.676L116.553 391.799Z" fill="white"/>
<path d="M106.897 404.464L105.1 394.614L103.753 396.49L105.55 406.341L106.897 404.464Z" fill="white"/>
<path d="M97.2407 416.66L95.4442 406.81L92.3004 410.562L87.2751 414.054L85 417.325L93.1986 425.104L95.8934 421.351L97.2407 416.66Z" fill="white"/>
<path d="M145.19 354.274L143.394 344.423L142.046 346.299L143.843 356.15L145.19 354.274Z" stroke="white" stroke-width="8" stroke-linecap="round"/>
<path d="M135.534 366.939L133.738 357.088L132.39 358.964L134.187 368.815L135.534 366.939Z" stroke="white" stroke-width="8" stroke-linecap="round"/>
<path d="M125.878 379.604L124.081 369.753L122.734 371.629L124.53 381.48L125.878 379.604Z" stroke="white" stroke-width="8" stroke-linecap="round"/>
<path d="M116.553 391.799L114.757 381.949L113.409 383.825L115.206 393.676L116.553 391.799Z" stroke="white" stroke-width="8" stroke-linecap="round"/>
<path d="M106.897 404.464L105.1 394.614L103.753 396.49L105.55 406.341L106.897 404.464Z" stroke="white" stroke-width="8" stroke-linecap="round"/>
<path d="M97.2407 416.66L95.4442 406.81L92.3004 410.562L87.2751 414.054L85 417.325L93.1986 425.104L95.8934 421.351L97.2407 416.66Z" stroke="white" stroke-width="8" stroke-linecap="round"/>
<path d="M345.447 116.984L267.968 116.984M361.675 130.594L247.551 130.594M367.957 144.203L223.47 144.203M371.098 160.534L209.335 160.534M371.098 176.865L196.771 176.865M367.957 193.197L192.583 193.197M361.675 208.983L192.583 208.983M353.823 225.859L186.824 225.859M342.829 243.279L186.824 243.279M326.077 260.155L192.583 260.155M292.572 275.397L203.053 275.397" stroke="#FFE699" stroke-width="2" stroke-linecap="round"/>
<path d="M352.252 122.964L352.252 230.75M332.882 109.899L332.882 252.525M311.419 105L311.419 267.768M288.908 109.899L288.908 278.111M267.444 115.887L267.444 283.554M247.551 122.964L247.551 287.909M230.275 137.662L230.275 283.554M210.906 153.449L210.906 278.111M195.724 185.023L195.724 267.768" stroke="#FFE699" stroke-width="2" stroke-linecap="round"/>
<path d="M166.931 324.384C166.931 324.384 201.302 304.913 229.752 294.988L263.779 286.823C263.779 286.823 214.57 287.367 203.053 277.568C188.546 265.226 186.301 232.93 186.301 232.93C183.76 252.64 181.342 274.593 174.935 293.385C171.088 304.671 163.79 320.574 163.79 320.574L166.931 324.384Z" stroke="#FFCA28" stroke-width="8" stroke-linecap="round"/>
<path d="M372.558 177.703C375.606 153.469 367.986 129.546 343.093 114.502C318.199 99.4575 285.178 103.395 256.728 118.484C236.401 129.266 213.292 148.724 205.418 161.895C189.669 188.237 189.992 205.571 185.097 243.555C182.557 263.266 181.343 274.594 174.936 293.387C171.089 304.672 162.744 321.309 162.744 321.309L167.455 325.471C167.455 325.471 199.322 306.693 227.771 296.768C256.22 286.844 271.969 284.697 290.258 277.275C313.627 267.792 323.28 263.578 342.585 243.558C361.89 223.538 369.51 201.938 372.558 177.703Z" stroke="#FFCA28" stroke-width="10" stroke-linecap="round"/>
<circle cx="125" cy="95" r="38" fill="url(#paint0_radial_19_15)"/>
<path d="M88.8688 94.3404C88.8688 94.3404 95.9397 90.877 100.082 87.4879C106.934 81.8813 105.105 81.2692 114.41 75.0664C121.885 70.0831 133.322 74.1073 139.328 79.4295C144.874 84.3449 150.241 96.6817 146.18 104.348C140.574 114.934 139.951 111.173 131.229 120.504C127.12 124.901 123.131 131.094 123.131 131.094" stroke="url(#paint1_linear_19_15)" stroke-width="3" stroke-linecap="round"/>
<defs>
<radialGradient id="paint0_radial_19_15" cx="0" cy="0" r="1" gradientUnits="userSpaceOnUse" gradientTransform="translate(107.557 113.066) rotate(132.064) scale(68.8072 73.2523)">
<stop offset="0.211538" stop-color="#B28D1C"/>
<stop offset="0.538462" stop-color="#FFCA28"/>
<stop offset="0.711538" stop-color="#FFCA28"/>
<stop offset="0.846154" stop-color="#FFEDB7"/>
</radialGradient>
<linearGradient id="paint1_linear_19_15" x1="148.049" y1="73.196" x2="92.6065" y2="123.655" gradientUnits="userSpaceOnUse">
<stop stop-color="#FFE79D"/>
<stop offset="1" stop-color="#AB9C6E"/>
</linearGradient>
</defs>
</svg>
