<svg width="1280" height="631" viewBox="0 0 1280 631" fill="none" xmlns="http://www.w3.org/2000/svg">
<rect width="1280" height="631" fill="black"/>
<g filter="url(#filter0_d_16_61)">
<path d="M160.56 276.96C155.12 276.96 149.733 276.373 144.4 275.2C139.173 273.92 134.427 272.213 130.16 270.08C125.893 267.84 122.48 265.387 119.92 262.72L125.68 253.44C128.24 256.107 131.387 258.453 135.12 260.48C138.96 262.507 143.173 264.107 147.76 265.28C152.347 266.347 156.933 266.88 161.52 266.88C168.133 266.88 173.893 266.027 178.8 264.32C183.813 262.613 187.707 260.107 190.48 256.8C193.253 253.493 194.64 249.493 194.64 244.8C194.64 241.067 193.573 238.08 191.44 235.84C189.307 233.493 186.533 231.627 183.12 230.24C179.707 228.747 175.92 227.413 171.76 226.24C167.6 225.067 163.44 223.787 159.28 222.4C155.12 221.013 151.28 219.307 147.76 217.28C144.347 215.253 141.573 212.587 139.44 209.28C137.413 205.973 136.4 201.813 136.4 196.8C136.4 189.76 138.32 183.733 142.16 178.72C146 173.6 151.28 169.707 158 167.04C164.72 164.373 172.453 163.04 181.2 163.04C187.813 163.04 194.16 163.84 200.24 165.44C206.427 167.04 211.653 169.44 215.92 172.64L210.96 182.24C206.907 179.253 202.267 177.013 197.04 175.52C191.813 173.92 186.32 173.12 180.56 173.12C174.053 173.12 168.347 174.027 163.44 175.84C158.533 177.653 154.693 180.267 151.92 183.68C149.253 186.987 147.92 190.987 147.92 195.68C147.92 199.413 148.933 202.453 150.96 204.8C153.093 207.147 155.867 209.067 159.28 210.56C162.8 212.053 166.64 213.44 170.8 214.72C174.96 215.893 179.12 217.173 183.28 218.56C187.44 219.84 191.227 221.493 194.64 223.52C198.16 225.44 200.987 228 203.12 231.2C205.253 234.293 206.32 238.293 206.32 243.2C206.32 250.347 204.347 256.48 200.4 261.6C196.453 266.613 191.013 270.453 184.08 273.12C177.253 275.68 169.413 276.96 160.56 276.96ZM233.957 276L288.918 192H300.798L322.038 276H310.158L291.438 198.48H296.238L246.918 276H233.957ZM254.358 255L259.638 245.4H306.798L308.478 255H254.358ZM352.568 276L369.368 192H381.368L366.608 265.56H412.208L410.168 276H352.568ZM450.647 276L465.287 202.44H436.607L438.647 192H508.127L505.967 202.44H477.287L462.527 276H450.647ZM561.664 276.96C553.344 276.96 546.224 275.48 540.304 272.52C534.384 269.56 529.864 265.44 526.744 260.16C523.704 254.8 522.184 248.6 522.184 241.56C522.184 234.6 523.384 228.08 525.784 222C528.184 215.84 531.624 210.44 536.104 205.8C540.584 201.16 545.944 197.56 552.184 195C558.424 192.36 565.424 191.04 573.184 191.04C581.584 191.04 588.744 192.52 594.664 195.48C600.584 198.44 605.064 202.6 608.104 207.96C611.224 213.24 612.784 219.4 612.784 226.44C612.784 233.4 611.584 239.96 609.184 246.12C606.784 252.2 603.344 257.56 598.864 262.2C594.384 266.84 588.984 270.48 582.664 273.12C576.424 275.68 569.424 276.96 561.664 276.96ZM562.744 266.28C568.504 266.28 573.744 265.28 578.464 263.28C583.184 261.2 587.184 258.36 590.464 254.76C593.744 251.08 596.264 246.88 598.024 242.16C599.784 237.44 600.664 232.44 600.664 227.16C600.664 222.12 599.584 217.72 597.424 213.96C595.264 210.12 592.064 207.12 587.824 204.96C583.584 202.8 578.384 201.72 572.224 201.72C566.384 201.72 561.104 202.76 556.384 204.84C551.744 206.84 547.744 209.68 544.384 213.36C541.104 216.96 538.584 221.12 536.824 225.84C535.064 230.56 534.184 235.56 534.184 240.84C534.184 245.88 535.264 250.32 537.424 254.16C539.664 257.92 542.864 260.88 547.024 263.04C551.264 265.2 556.504 266.28 562.744 266.28ZM149.68 471L170 369.24H130.48L132.56 359H223.12L221.04 369.24H181.68L161.36 471H149.68ZM260.635 423.24H303.835L301.795 433.44H258.595L260.635 423.24ZM254.155 460.56H303.235L301.195 471H240.115L256.915 387H316.195L314.155 397.44H266.755L254.155 460.56ZM338.506 471L355.306 387H365.146L405.466 456.36L401.866 455.88L415.546 387H427.546L410.746 471H400.906L360.586 401.64L364.186 402.12L350.506 471H338.506ZM453.888 471L470.688 387H480.528L520.848 456.36L517.248 455.88L530.928 387H542.928L526.128 471H516.288L475.968 401.64L479.568 402.12L465.888 471H453.888ZM569.271 471L586.071 387H598.071L581.271 471H569.271ZM650.34 471.96C646.1 471.96 641.94 471.52 637.86 470.64C633.86 469.68 630.18 468.44 626.82 466.92C623.54 465.4 620.9 463.68 618.9 461.76L624.18 452.16C626.34 454.08 628.86 455.76 631.74 457.2C634.7 458.64 637.82 459.76 641.1 460.56C644.46 461.36 647.9 461.76 651.42 461.76C655.9 461.76 659.86 461.2 663.3 460.08C666.74 458.96 669.38 457.36 671.22 455.28C673.14 453.12 674.1 450.52 674.1 447.48C674.1 445 673.3 442.96 671.7 441.36C670.1 439.76 668.02 438.48 665.46 437.52C662.98 436.48 660.18 435.56 657.06 434.76C654.02 433.88 650.94 432.92 647.82 431.88C644.78 430.76 641.98 429.4 639.42 427.8C636.94 426.2 634.9 424.16 633.3 421.68C631.78 419.12 631.02 415.92 631.02 412.08C631.02 406.72 632.5 402.12 635.46 398.28C638.42 394.36 642.5 391.36 647.7 389.28C652.98 387.12 659.06 386.04 665.94 386.04C671.14 386.04 676.1 386.64 680.82 387.84C685.54 389.04 689.58 390.8 692.94 393.12L688.14 402.96C685.02 400.72 681.5 399.04 677.58 397.92C673.66 396.8 669.58 396.24 665.34 396.24C660.78 396.24 656.82 396.84 653.46 398.04C650.1 399.24 647.5 400.96 645.66 403.2C643.82 405.36 642.86 407.92 642.78 410.88C642.78 413.44 643.54 415.52 645.06 417.12C646.58 418.72 648.62 420.04 651.18 421.08C653.74 422.12 656.54 423.12 659.58 424.08C662.7 424.96 665.78 425.92 668.82 426.96C671.86 427.92 674.66 429.2 677.22 430.8C679.86 432.32 681.94 434.28 683.46 436.68C685.06 439.08 685.86 442.12 685.86 445.8C685.86 451.16 684.34 455.84 681.3 459.84C678.34 463.76 674.18 466.76 668.82 468.84C663.54 470.92 657.38 471.96 650.34 471.96ZM827.683 471.96C816.59 471.96 807.15 470.04 799.363 466.2C791.576 462.253 785.603 456.813 781.443 449.88C777.39 442.84 775.363 434.68 775.363 425.4C775.363 416.227 776.91 407.587 780.003 399.48C783.203 391.373 787.736 384.227 793.603 378.04C799.576 371.747 806.723 366.84 815.043 363.32C823.47 359.8 832.963 358.04 843.523 358.04C852.483 358.04 860.43 359.427 867.363 362.2C874.296 364.973 879.63 369.027 883.363 374.36L875.043 381.72C871.523 377.347 867.096 374.093 861.763 371.96C856.43 369.72 850.03 368.6 842.563 368.6C834.136 368.6 826.456 370.093 819.523 373.08C812.696 375.96 806.883 380.013 802.083 385.24C797.283 390.467 793.55 396.493 790.883 403.32C788.323 410.04 787.043 417.24 787.043 424.92C787.043 432.067 788.59 438.413 791.683 443.96C794.883 449.4 799.576 453.667 805.763 456.76C811.95 459.853 819.523 461.4 828.483 461.4C835.843 461.4 842.51 460.28 848.483 458.04C854.456 455.8 859.683 452.493 864.163 448.12L871.043 455.96C866.136 461.187 859.896 465.187 852.323 467.96C844.75 470.627 836.536 471.96 827.683 471.96ZM910.363 471L927.163 387H939.163L924.403 460.56H970.003L967.963 471H910.363ZM1035.29 471.96C1027.53 471.96 1021.13 470.4 1016.09 467.28C1011.05 464.16 1007.53 459.84 1005.53 454.32C1003.53 448.72 1003.29 442.2 1004.81 434.76L1014.29 387H1026.29L1016.69 434.64C1015.89 438.88 1015.69 442.68 1016.09 446.04C1016.49 449.32 1017.53 452.12 1019.21 454.44C1020.89 456.68 1023.17 458.4 1026.05 459.6C1028.93 460.72 1032.41 461.28 1036.49 461.28C1041.53 461.28 1045.85 460.32 1049.45 458.4C1053.13 456.48 1056.17 453.56 1058.57 449.64C1060.97 445.72 1062.77 440.8 1063.97 434.88L1073.57 387H1085.33L1075.61 435.72C1073.21 447.72 1068.61 456.76 1061.81 462.84C1055.09 468.92 1046.25 471.96 1035.29 471.96ZM1111.13 471L1127.93 387H1165.13C1173.53 387 1180.05 388.56 1184.69 391.68C1189.33 394.8 1191.65 399.4 1191.65 405.48C1191.65 410.76 1190.33 415.24 1187.69 418.92C1185.13 422.52 1181.77 425.24 1177.61 427.08C1173.45 428.92 1169.05 429.84 1164.41 429.84L1167.17 426.36C1173.41 426.36 1178.45 427.92 1182.29 431.04C1186.13 434.16 1188.05 438.72 1188.05 444.72C1188.05 450.48 1186.53 455.32 1183.49 459.24C1180.53 463.16 1176.29 466.12 1170.77 468.12C1165.33 470.04 1158.93 471 1151.57 471H1111.13ZM1125.05 461.28H1152.41C1159.93 461.28 1165.77 459.88 1169.93 457.08C1174.09 454.28 1176.17 450.2 1176.17 444.84C1176.17 440.6 1174.65 437.64 1171.61 435.96C1168.57 434.2 1164.25 433.32 1158.65 433.32H1128.65L1130.57 423.6H1157.09C1161.49 423.6 1165.33 423 1168.61 421.8C1171.97 420.6 1174.57 418.8 1176.41 416.4C1178.25 414 1179.17 411 1179.17 407.4C1179.17 403.72 1177.73 401.04 1174.85 399.36C1171.97 397.6 1167.89 396.72 1162.61 396.72H1137.89L1125.05 461.28Z" fill="url(#paint0_linear_16_61)"/>
</g>
<path d="M738.602 423.85L733.502 415.233L732.888 417.46L737.988 426.077L738.602 423.85Z" fill="white"/>
<path d="M733.934 439.077L728.835 430.46L728.221 432.687L733.321 441.304L733.934 439.077Z" fill="white"/>
<path d="M729.267 454.304L724.167 445.687L723.554 447.914L728.654 456.531L729.267 454.304Z" fill="white"/>
<path d="M724.748 468.976L719.649 460.359L719.035 462.586L724.135 471.203L724.748 468.976Z" fill="white"/>
<path d="M720.081 484.203L714.981 475.586L714.368 477.813L719.468 486.43L720.081 484.203Z" fill="white"/>
<path d="M715.251 498.99L710.151 490.373L708.503 494.983L705 500L704 503.857L714.387 508.311L715.613 503.857L715.251 498.99Z" fill="white"/>
<path d="M738.602 423.85L733.502 415.233L732.888 417.46L737.988 426.077L738.602 423.85Z" stroke="white" stroke-width="8" stroke-linecap="round"/>
<path d="M733.934 439.077L728.835 430.46L728.221 432.687L733.321 441.304L733.934 439.077Z" stroke="white" stroke-width="8" stroke-linecap="round"/>
<path d="M729.267 454.304L724.167 445.687L723.554 447.914L728.654 456.531L729.267 454.304Z" stroke="white" stroke-width="8" stroke-linecap="round"/>
<path d="M724.748 468.976L719.649 460.359L719.035 462.586L724.135 471.203L724.748 468.976Z" stroke="white" stroke-width="8" stroke-linecap="round"/>
<path d="M720.081 484.203L714.981 475.586L714.368 477.813L719.468 486.43L720.081 484.203Z" stroke="white" stroke-width="8" stroke-linecap="round"/>
<path d="M715.251 498.99L710.151 490.373L708.503 494.983L705 500L704 503.857L714.387 508.311L715.613 503.857L715.251 498.99Z" stroke="white" stroke-width="8" stroke-linecap="round"/>
<path d="M844.187 131.861L771.512 158.718M864.127 139.001L757.079 178.561M874.738 149.589L739.209 199.674M883.345 163.818L731.611 219.893M889.006 179.137L725.488 239.567M891.721 195.544L727.22 256.337M891.301 212.53L732.693 271.145M889.785 231.081L733.141 288.97M885.511 251.232L739.18 305.31M875.648 272.868L750.431 319.143M849.505 298.78L765.536 329.811" stroke="#FFE699" stroke-width="2" stroke-linecap="round"/>
<path d="M852.645 135.116L890.008 236.219M829.947 129.576L879.388 263.358M808.116 132.42L864.538 285.096M788.699 144.819L847.009 302.601M770.642 157.876L828.763 315.147M754.435 171.41L811.613 326.128M743.326 191.186L793.899 328.032M730.629 212.708L773.843 329.64M727.334 247.587L756.017 325.201" stroke="#FFE699" stroke-width="2" stroke-linecap="round"/>
<path d="M748.635 388.286C748.635 388.286 774.126 358.107 797.371 338.936L826.458 319.481C826.458 319.481 780.489 337.05 766.289 331.851C748.403 325.303 735.102 295.787 735.102 295.787C739.552 315.156 744.893 336.586 745.398 356.434C745.701 368.354 744.368 385.8 744.368 385.8L748.635 388.286Z" stroke="#FFCA28" stroke-width="8" stroke-linecap="round"/>
<path d="M890.666 179.416C885.124 155.627 869.684 135.829 841.119 130.347C812.554 124.864 782.945 140.005 761.49 164.02C746.161 181.179 731.23 207.442 728.409 222.526C722.768 252.694 729.08 268.841 737.655 306.167C742.105 325.536 744.894 336.583 745.398 356.431C745.701 368.351 743.641 386.848 743.641 386.848L749.503 389.119C749.503 389.119 772.884 360.459 796.129 341.288C819.375 322.117 833.403 314.644 847.985 301.343C866.618 284.347 874.211 277.048 885.379 251.577C896.547 226.107 896.207 203.204 890.666 179.416Z" stroke="#FFCA28" stroke-width="10" stroke-linecap="round"/>
<circle cx="683" cy="125" r="38" fill="url(#paint1_radial_16_61)"/>
<path d="M646.869 124.34C646.869 124.34 653.94 120.877 658.082 117.488C664.934 111.881 663.105 111.269 672.41 105.066C679.885 100.083 691.322 104.107 697.328 109.43C702.874 114.345 708.241 126.682 704.18 134.348C698.574 144.934 697.951 141.173 689.23 150.504C685.12 154.901 681.131 161.094 681.131 161.094" stroke="url(#paint2_linear_16_61)" stroke-width="3" stroke-linecap="round"/>
<defs>
<filter id="filter0_d_16_61" x="109.92" y="156.039" width="1091.73" height="328.922" filterUnits="userSpaceOnUse" color-interpolation-filters="sRGB">
<feFlood flood-opacity="0" result="BackgroundImageFix"/>
<feColorMatrix in="SourceAlpha" type="matrix" values="0 0 0 0 0 0 0 0 0 0 0 0 0 0 0 0 0 0 127 0" result="hardAlpha"/>
<feOffset dy="3"/>
<feGaussianBlur stdDeviation="5"/>
<feComposite in2="hardAlpha" operator="out"/>
<feColorMatrix type="matrix" values="0 0 0 0 0 0 0 0 0 0 0 0 0 0 0 0 0 0 1 0"/>
<feBlend mode="normal" in2="BackgroundImageFix" result="effect1_dropShadow_16_61"/>
<feBlend mode="normal" in="SourceGraphic" in2="effect1_dropShadow_16_61" result="shape"/>
</filter>
<linearGradient id="paint0_linear_16_61" x1="460.5" y1="172" x2="498.5" y2="453.5" gradientUnits="userSpaceOnUse">
<stop offset="0.336762" stop-color="white"/>
<stop offset="0.711538" stop-color="#FFCA28"/>
</linearGradient>
<radialGradient id="paint1_radial_16_61" cx="0" cy="0" r="1" gradientUnits="userSpaceOnUse" gradientTransform="translate(665.557 143.066) rotate(132.064) scale(68.8072 73.2523)">
<stop offset="0.211538" stop-color="#B28D1C"/>
<stop offset="0.538462" stop-color="#FFCA28"/>
<stop offset="0.711538" stop-color="#FFCA28"/>
<stop offset="0.846154" stop-color="#FFEDB7"/>
</radialGradient>
<linearGradient id="paint2_linear_16_61" x1="706.049" y1="103.196" x2="650.607" y2="153.655" gradientUnits="userSpaceOnUse">
<stop stop-color="#FFE79D"/>
<stop offset="1" stop-color="#AB9C6E"/>
</linearGradient>
</defs>
</svg>
